<?xml version="1.0" encoding="UTF-8" standalone="no"?>
<!-- Created with Inkscape (http://www.inkscape.org/) -->

<svg
   xmlns:dc="http://purl.org/dc/elements/1.1/"
   xmlns:cc="http://creativecommons.org/ns#"
   xmlns:rdf="http://www.w3.org/1999/02/22-rdf-syntax-ns#"
   xmlns:svg="http://www.w3.org/2000/svg"
   xmlns="http://www.w3.org/2000/svg"
   xmlns:sodipodi="http://sodipodi.sourceforge.net/DTD/sodipodi-0.dtd"
   xmlns:inkscape="http://www.inkscape.org/namespaces/inkscape"
   width="72px"
   height="72px"
   viewBox="0 0 72 72"
   version="1.1"
   id="SVGRoot"
   inkscape:version="0.92.4 (fd57863, 2020-04-02)"
   sodipodi:docname="dessin.svg">
  <defs
     id="defs4518" />
  <sodipodi:namedview
     id="base"
     pagecolor="#ffffff"
     bordercolor="#666666"
     borderopacity="1.0"
     inkscape:pageopacity="0.0"
     inkscape:pageshadow="2"
     inkscape:zoom="11.313708"
     inkscape:cx="34.770578"
     inkscape:cy="37.716687"
     inkscape:document-units="px"
     inkscape:current-layer="layer1"
     showgrid="true"
     inkscape:window-width="1850"
     inkscape:window-height="1016"
     inkscape:window-x="70"
     inkscape:window-y="27"
     inkscape:window-maximized="1"
     inkscape:grid-bbox="true">
    <inkscape:grid
       type="xygrid"
       id="grid5074" />
  </sodipodi:namedview>
  <metadata
     id="metadata4521">
    <rdf:RDF>
      <cc:Work
         rdf:about="">
        <dc:format>image/svg+xml</dc:format>
        <dc:type
           rdf:resource="http://purl.org/dc/dcmitype/StillImage" />
        <dc:title></dc:title>
      </cc:Work>
    </rdf:RDF>
  </metadata>
  <g
     inkscape:label="Calque 1"
     inkscape:groupmode="layer"
     id="layer1">
    <path
       style="fill:#000000;fill-opacity:1;stroke:#787878;stroke-width:0;stroke-linejoin:miter;stroke-miterlimit:4;stroke-dasharray:none;stroke-opacity:1;paint-order:normal"
       d="M 41.142578 0 L 0 30.857422 L 30.857422 72 L 72 41.142578 L 41.142578 0 z M 37.585938 16.757812 C 41.58703 16.757812 44.795282 17.603218 47.208984 19.294922 C 49.644432 20.986626 50.861328 23.219188 50.861328 25.992188 C 50.861328 27.317647 50.470323 28.581779 49.6875 29.785156 C 48.904677 30.971093 47.535181 32.314592 45.578125 33.814453 L 42.707031 36.064453 C 41.685013 36.884145 40.956386 37.529113 40.521484 38 C 40.108328 38.453447 39.816539 38.897978 39.642578 39.333984 C 39.512108 39.70023 39.412891 40.144761 39.347656 40.667969 C 39.282421 41.191176 39.25 41.90756 39.25 42.814453 L 39.25 46.03125 L 33.019531 46.03125 L 33.019531 42.001953 C 33.019531 40.240488 33.324732 38.793773 33.933594 37.660156 C 34.542456 36.52654 35.826147 35.208846 37.783203 33.708984 L 40.71875 31.380859 C 41.958219 30.456526 42.848951 29.585317 43.392578 28.765625 C 43.95795 27.945933 44.240234 27.108479 44.240234 26.253906 C 44.240234 24.701724 43.523065 23.445542 42.087891 22.486328 C 40.674461 21.527114 38.79378 21.048828 36.445312 21.048828 C 34.727452 21.048828 32.89065 21.352482 30.933594 21.962891 C 28.998283 22.573299 26.974506 23.464316 24.865234 24.632812 L 24.865234 19.714844 C 26.909271 18.720749 28.974973 17.978561 31.0625 17.490234 C 33.171772 17.001907 35.346195 16.757813 37.585938 16.757812 z M 32.824219 49.876953 L 39.445312 49.876953 L 39.445312 56.521484 L 32.824219 56.521484 L 32.824219 49.876953 z "
       id="rect5078" />
  </g>
</svg>
